<svg id="Compo" xmlns="http://www.w3.org/2000/svg" viewBox="0 0 220.69 457.87"><defs><style>.cls-1{fill:#fff;}.cls-1,.cls-3{stroke:#1d1d1b;stroke-miterlimit:10;stroke-width:2px;}.cls-2{fill:#1d1d1b;}.cls-3{fill:none;}</style></defs><path class="cls-1" d="M298.38,448.38a61.68,61.68,0,0,1-3.82,7.64c.28,1.31.67,3.21,1.12,5.5,1,5.3,1.18,6.84.6,7.12s-1.33-.91-3.67-2.12a14.57,14.57,0,0,0-3.34-1.23l-4.48,5.27a39.39,39.39,0,0,0-1.84,6.5c-.55,2.85-.62,5-1.73,5.36-.75.23-1.07-.55-2.49-.8a5.51,5.51,0,0,0-4.22,1.52c-.65.64-1.51,1.47-2.53,2.45L269.47,488c-7.24,6.87-15.86,14.92-29.69,21.62A88,88,0,0,1,208,519a81.85,81.85,0,0,1-16.43-.2,14.84,14.84,0,0,0-2.37,2.58c-1.23,1.7-1.35,2.65-2.14,2.84-1.09.27-2.09-1.25-3.57-2.6a15.69,15.69,0,0,0-6.83-3.56L172,520.88c-2.54,1.54-3.64,2.21-4.14,1.82s.3-1.79,0-4a7.74,7.74,0,0,0-1.26-3.35,4.74,4.74,0,0,0-3.63-.54c-.83.26-1.32.77-1.75.54s-.37-1.15-.43-2.28a13.79,13.79,0,0,0-.77-3.87A62,62,0,0,1,150.7,504a56.14,56.14,0,0,1-4.7-3.54A67.28,67.28,0,0,1,127.77,476a78.9,78.9,0,0,1-7-30.48c-.47-9.69.76-17.78,2.6-29.95,1.56-10.25,2.89-14.67,2.87-23.19a82.25,82.25,0,0,0-.94-12.14A56.24,56.24,0,0,1,113.42,378c-6.15-1.89-14.92-4.58-21.56-12.94A36.22,36.22,0,0,1,85,349.79c-1.1-5.56-.55-9.71.32-16a73.22,73.22,0,0,1,7.38-24.92,67.7,67.7,0,0,1,11.69-16.3,64.54,64.54,0,0,1,9.66-8.08c.16-1,.33-2,.49-3a153.46,153.46,0,0,1,9.23-32.48c.34-.83.74-1.79,1.23-2.9a145.73,145.73,0,0,1,9.8-18.72c-1.4-.6-3.29-1.45-5.49-2.58,0,0-1.29-.66-2.55-1.37A96.84,96.84,0,0,1,113,213.92c-5.28-4.5-13.86-12.94-12.67-14.53.6-.81,3.25.88,9.63,2.69,7.07,2,14.34,3,14.61,2.07.35-1.13-11-4.15-21.86-14.29-6-5.59-5.46-7.73-5.18-8.4.79-1.87,4.13-2,9.63-2.38,13.09-1,18.25-1.28,18.34-2.07.11-1-7.34-1.41-15.64-6.62-.62-.4-8.3-5.28-7.42-7.56.4-1,2.36-1,9.52-1.52,2.64-.19,4.91-.38,6.64-.53l.42,0a324,324,0,0,1,4.54-35c2.65-14.21,6.87-36.67,13.22-36.91,1,0,1.38.5,12.94,9.85,3.88,3.13,3.13,2.5,4.44,3.57,5.42,4.46,9.16,8.08,15.79,13.62,4.79,4,6.24,5,7.81,4.52s2-2.19,5.73-7.83,4.55-5.77,4.93-5.65c.69.22.5,1.63,1.3,5.22.57,2.55,1.14,5.08,1.94,5.12s1.91-3.38,2.63-6c1.63-5.87,1.49-8.9,2.54-9.06s2.83,2.93,3.62,5c.56,1.45.62,2.35,1,2.39,1.13.12,2.24-7.16,3.7-7.1,1.08,0,1.37,4.11,4.85,8,.56.63.75.75,1,.79,2.14.35,4.12-6.54,8.83-15.79,2.47-4.85,4.78-8.34,9.4-15.34a49.47,49.47,0,0,1,6.37-7.78c2.66-2.64,4-4,5-4,6.69-.59,14.33,26.07,16.17,32.5a308.35,308.35,0,0,1,6.8,30.92c.46,2.67.81,4.88,1,6.36a19.29,19.29,0,0,0,6.59,2.45c3.72.63,6.18-.14,6.48.65.45,1.15-4.49,4.11-6.11,5.08-5.42,3.25-9,4.29-8.86,4.83s5.62.08,10.41-.93c4.21-.88,6.28-1.76,6.82-1,.24.34.49,1.42-3.38,5.73-8.21,9.13-16.8,12.53-16.29,13.83s7.88-.46,10.08-1c6.31-1.39,8.37-2.72,9-1.92,1.32,1.66-5.56,9.86-11.33,15.5s-9.89,8.16-9.33,9.33c.35.72,2.49,1,11.05-1.58A88.53,88.53,0,0,1,224,225.91c2.87,4.13,5.77,5.8,8.11,6.5,2.55.76,5.24.62,5.49,1.75.33,1.45-3.66,3.59-3.84,3.68-2.82,1.49-4.4,1-4.76,2-.67,1.85,4.13,5.33,5.34,6.21,3.29,2.39,5.07,2.65,5.08,3.53s-1.65,2-8.77,3.56a75.77,75.77,0,0,0,8.93,67,15.92,15.92,0,0,1,1.65,2.11,17,17,0,0,1,1.6,3.28,24,24,0,0,1,.93,13.22A27.3,27.3,0,0,1,239.4,348a43.34,43.34,0,0,1-6.79,8,72.17,72.17,0,0,1-13.09,9.75c-6.61,4.07-14.06,8.67-25,12.35A104,104,0,0,1,184.23,381a69.3,69.3,0,0,0-1.5,8.79c-.48,4.53-.87,8.26,0,13,1.53,8.38,5.9,14,8.86,17.72,4.4,5.53,8.68,10.9,16.15,12.76,5.78,1.44,10.67.06,14.58-1A33.2,33.2,0,0,0,238,423.11c2.15-2.3,6.06-6.47,6.25-12.24.07-2-.38-2.39-.78-5.21-.36-2.56-1.45-10.17,1.83-16.15,3.4-6.22,10.2-8.28,13.8-9.38a30.23,30.23,0,0,1,18.76.52c8.37,3,12.81,9,15.62,12.77,8,10.65,9,21.92,9.49,28.85A59.28,59.28,0,0,1,298.38,448.38Z" transform="translate(-83.34 -67.35)"/><path class="cls-2" d="M135.89,88.67a100.35,100.35,0,0,0,11,11.63l3,2.7a19.82,19.82,0,0,1,2.84,3,2.73,2.73,0,0,1,.48,1.25,1.45,1.45,0,0,1-.31,1,1.42,1.42,0,0,1-.83.41,18.31,18.31,0,0,1-2.11.13c-1.33,0-2.66.12-4,.19-.66.05-1.32.09-2,.17a5.82,5.82,0,0,0-.9.15,2.08,2.08,0,0,0-.34.1c-.09,0-.07.08,0-.09s0-.27,0-.2a1.49,1.49,0,0,0,.22.22,7.42,7.42,0,0,0,.74.53c.55.34,1.13.67,1.71,1a27.52,27.52,0,0,1,6.61,4.85,22.05,22.05,0,0,1,4.35,7,31.65,31.65,0,0,1,1.9,7.86c-1.25-5.2-3.38-10.28-7.14-13.93a28.44,28.44,0,0,0-6.43-4.48c-.58-.33-1.17-.66-1.77-1a10.67,10.67,0,0,1-.9-.63,2.8,2.8,0,0,1-.48-.49,1.71,1.71,0,0,1-.23-.45,1.2,1.2,0,0,1,0-.7,1.28,1.28,0,0,1,.75-.74,3.17,3.17,0,0,1,.61-.21,9.23,9.23,0,0,1,1.08-.17c.7-.08,1.37-.12,2-.15,1.35-.07,2.69-.14,4-.17.66,0,1.4,0,1.9-.06.12,0,.15,0,.08,0s0,0,0,0,0,0,0,0a1.5,1.5,0,0,0-.25-.6,20.51,20.51,0,0,0-2.56-2.88l-2.87-2.82A74.12,74.12,0,0,1,135.89,88.67Z" transform="translate(-83.34 -67.35)"/><path class="cls-2" d="M137.6,174.13c-1.45.71-1.92,15,0,17.52s39.54,7,40.75,5.71,1-9.59,0-11.62S139,173.41,137.6,174.13Z" transform="translate(-83.34 -67.35)"/><path class="cls-2" d="M203.55,184.56c-1.37,2.51.67,8.93,2.56,9.65s29.45-9.05,30.95-10.9,1.67-17.23-.05-18S204.91,182.05,203.55,184.56Z" transform="translate(-83.34 -67.35)"/><path class="cls-3" d="M123.73,231.93" transform="translate(-83.34 -67.35)"/><path class="cls-2" d="M117.3,272.63a92.48,92.48,0,0,0-2.92,22.91,95,95,0,0,0,2.84,23,95.31,95.31,0,0,1-3.84-23,94.32,94.32,0,0,1,2-23.38Z" transform="translate(-83.34 -67.35)"/><path class="cls-2" d="M218.36,277.49a31.88,31.88,0,0,0,3.85,23.81,36.66,36.66,0,0,0,3.68,4.9c.68.77,1.39,1.51,2.11,2.26s1.44,1.41,2.22,2.1c3.12,2.72,6.32,5.4,9.46,8.08l-1.3,1.51c-3.07-2.83-6.14-5.62-9.17-8.49a31.59,31.59,0,0,1-2.21-2.27c-.7-.77-1.4-1.56-2.06-2.38a37.25,37.25,0,0,1-3.59-5.2,31.24,31.24,0,0,1-3.89-11.91A33.25,33.25,0,0,1,218.36,277.49Z" transform="translate(-83.34 -67.35)"/><path class="cls-2" d="M155.78,231.1a63.26,63.26,0,0,1-22.09-3l.7-1.88A62.14,62.14,0,0,0,155.78,231.1Z" transform="translate(-83.34 -67.35)"/><path class="cls-2" d="M212.41,228.23l5.94-1.64c1-.28,2-.53,3-.85l2.93-.9.46,1.94-3.07.43c-1,.16-2,.25-3.08.37l-6.14.67Z" transform="translate(-83.34 -67.35)"/></svg>